<svg xmlns="http://www.w3.org/2000/svg" width="373" height="336" viewBox="0 0 373 336" font-family="-apple-system, Segoe UI, Roboto, sans-serif">
<rect width="373" height="336" rx="10" fill="#0d1117"/>
<line x1="302.9" y1="154.9" x2="294.1" y2="265.5" stroke="#30363d" stroke-width="1.5"/>
<line x1="302.9" y1="154.9" x2="176.2" y2="204.2" stroke="#30363d" stroke-width="1.5"/>
<line x1="294.1" y1="265.5" x2="176.2" y2="204.2" stroke="#30363d" stroke-width="1.5"/>
<line x1="176.2" y1="204.2" x2="70.0" y2="119.3" stroke="#30363d" stroke-width="1.5"/>
<line x1="70.0" y1="119.3" x2="196.6" y2="70.0" stroke="#30363d" stroke-width="1.5"/>
<line x1="196.6" y1="70.0" x2="113.0" y2="228.6" stroke="#30363d" stroke-width="1.5"/>
<line x1="70.0" y1="119.3" x2="113.0" y2="228.6" stroke="#30363d" stroke-width="1.5"/>
<line x1="113.0" y1="228.6" x2="239.7" y2="179.6" stroke="#30363d" stroke-width="1.5"/>
<line x1="239.7" y1="179.6" x2="133.1" y2="94.2" stroke="#30363d" stroke-width="1.5"/>
<line x1="133.1" y1="94.2" x2="249.9" y2="112.4" stroke="#30363d" stroke-width="1.5"/>
<line x1="249.9" y1="112.4" x2="228.9" y2="246.8" stroke="#30363d" stroke-width="1.5"/>
<line x1="228.9" y1="246.8" x2="123.2" y2="161.5" stroke="#30363d" stroke-width="1.5"/>
<line x1="123.2" y1="161.5" x2="239.7" y2="179.6" stroke="#30363d" stroke-width="1.5"/>
<line x1="186.7" y1="137.2" x2="228.9" y2="246.8" stroke="#30363d" stroke-width="1.5"/>
<line x1="186.7" y1="137.2" x2="302.9" y2="154.9" stroke="#30363d" stroke-width="1.5"/>
<line x1="196.6" y1="70.0" x2="123.2" y2="161.5" stroke="#30363d" stroke-width="1.5"/>
<circle cx="302.9" cy="154.9" r="15" fill="#1f6feb" stroke="#0d1117" stroke-width="2"/>
<text x="302.9" y="154.9" fill="#e6edf3" font-size="11" text-anchor="middle" dy="29">Ana</text>
<circle cx="294.1" cy="265.5" r="15" fill="#1f6feb" stroke="#0d1117" stroke-width="2"/>
<text x="294.1" y="265.5" fill="#e6edf3" font-size="11" text-anchor="middle" dy="29">Ben</text>
<circle cx="176.2" cy="204.2" r="15" fill="#1f6feb" stroke="#0d1117" stroke-width="2"/>
<text x="176.2" y="204.2" fill="#e6edf3" font-size="11" text-anchor="middle" dy="29">Cara</text>
<circle cx="70.0" cy="119.3" r="15" fill="#1f6feb" stroke="#0d1117" stroke-width="2"/>
<text x="70.0" y="119.3" fill="#e6edf3" font-size="11" text-anchor="middle" dy="29">Dan</text>
<circle cx="196.6" cy="70.0" r="15" fill="#1f6feb" stroke="#0d1117" stroke-width="2"/>
<text x="196.6" y="70.0" fill="#e6edf3" font-size="11" text-anchor="middle" dy="29">Eve</text>
<circle cx="113.0" cy="228.6" r="15" fill="#1f6feb" stroke="#0d1117" stroke-width="2"/>
<text x="113.0" y="228.6" fill="#e6edf3" font-size="11" text-anchor="middle" dy="29">Finn</text>
<circle cx="239.7" cy="179.6" r="15" fill="#1f6feb" stroke="#0d1117" stroke-width="2"/>
<text x="239.7" y="179.6" fill="#e6edf3" font-size="11" text-anchor="middle" dy="29">Gina</text>
<circle cx="133.1" cy="94.2" r="15" fill="#1f6feb" stroke="#0d1117" stroke-width="2"/>
<text x="133.1" y="94.2" fill="#e6edf3" font-size="11" text-anchor="middle" dy="29">Hugo</text>
<circle cx="249.9" cy="112.4" r="15" fill="#1f6feb" stroke="#0d1117" stroke-width="2"/>
<text x="249.9" y="112.4" fill="#e6edf3" font-size="11" text-anchor="middle" dy="29">Ivy</text>
<circle cx="228.9" cy="246.8" r="15" fill="#1f6feb" stroke="#0d1117" stroke-width="2"/>
<text x="228.9" y="246.8" fill="#e6edf3" font-size="11" text-anchor="middle" dy="29">Jon</text>
<circle cx="123.2" cy="161.5" r="15" fill="#1f6feb" stroke="#0d1117" stroke-width="2"/>
<text x="123.2" y="161.5" fill="#e6edf3" font-size="11" text-anchor="middle" dy="29">Kim</text>
<circle cx="186.7" cy="137.2" r="15" fill="#1f6feb" stroke="#0d1117" stroke-width="2"/>
<text x="186.7" y="137.2" fill="#e6edf3" font-size="11" text-anchor="middle" dy="29">Leo</text>
</svg>
