<svg xmlns="http://www.w3.org/2000/svg" width="566" height="479" viewBox="0 0 566 479" font-family="-apple-system, Segoe UI, Roboto, sans-serif">
<rect width="566" height="479" rx="10" fill="#0d1117"/>
<line x1="425.4" y1="409.3" x2="404.3" y2="258.5" stroke="#30363d" stroke-width="1.5"/>
<line x1="425.4" y1="409.3" x2="278.2" y2="364.0" stroke="#30363d" stroke-width="1.5"/>
<line x1="404.3" y1="258.5" x2="278.2" y2="364.0" stroke="#30363d" stroke-width="1.5"/>
<line x1="278.2" y1="364.0" x2="219.2" y2="218.5" stroke="#30363d" stroke-width="1.5"/>
<line x1="219.2" y1="218.5" x2="70.0" y2="208.5" stroke="#30363d" stroke-width="1.5"/>
<line x1="70.0" y1="208.5" x2="150.7" y2="366.2" stroke="#30363d" stroke-width="1.5"/>
<line x1="219.2" y1="218.5" x2="150.7" y2="366.2" stroke="#30363d" stroke-width="1.5"/>
<line x1="150.7" y1="366.2" x2="129.4" y2="225.6" stroke="#30363d" stroke-width="1.5"/>
<line x1="129.4" y1="225.6" x2="286.3" y2="231.8" stroke="#30363d" stroke-width="1.5"/>
<line x1="286.3" y1="231.8" x2="337.9" y2="70.0" stroke="#30363d" stroke-width="1.5"/>
<line x1="337.9" y1="70.0" x2="346.2" y2="214.7" stroke="#30363d" stroke-width="1.5"/>
<line x1="346.2" y1="214.7" x2="216.7" y2="108.3" stroke="#30363d" stroke-width="1.5"/>
<line x1="216.7" y1="108.3" x2="129.4" y2="225.6" stroke="#30363d" stroke-width="1.5"/>
<line x1="495.6" y1="262.1" x2="346.2" y2="214.7" stroke="#30363d" stroke-width="1.5"/>
<line x1="495.6" y1="262.1" x2="425.4" y2="409.3" stroke="#30363d" stroke-width="1.5"/>
<line x1="70.0" y1="208.5" x2="216.7" y2="108.3" stroke="#30363d" stroke-width="1.5"/>
<circle cx="425.4" cy="409.3" r="15" fill="#1f6feb" stroke="#0d1117" stroke-width="2"/>
<text x="425.4" y="409.3" fill="#e6edf3" font-size="11" text-anchor="middle" dy="29">Ana</text>
<circle cx="404.3" cy="258.5" r="15" fill="#1f6feb" stroke="#0d1117" stroke-width="2"/>
<text x="404.3" y="258.5" fill="#e6edf3" font-size="11" text-anchor="middle" dy="29">Ben</text>
<circle cx="278.2" cy="364.0" r="15" fill="#1f6feb" stroke="#0d1117" stroke-width="2"/>
<text x="278.2" y="364.0" fill="#e6edf3" font-size="11" text-anchor="middle" dy="29">Cara</text>
<circle cx="219.2" cy="218.5" r="15" fill="#1f6feb" stroke="#0d1117" stroke-width="2"/>
<text x="219.2" y="218.5" fill="#e6edf3" font-size="11" text-anchor="middle" dy="29">Dan</text>
<circle cx="70.0" cy="208.5" r="15" fill="#1f6feb" stroke="#0d1117" stroke-width="2"/>
<text x="70.0" y="208.5" fill="#e6edf3" font-size="11" text-anchor="middle" dy="29">Eve</text>
<circle cx="150.7" cy="366.2" r="15" fill="#1f6feb" stroke="#0d1117" stroke-width="2"/>
<text x="150.7" y="366.2" fill="#e6edf3" font-size="11" text-anchor="middle" dy="29">Finn</text>
<circle cx="129.4" cy="225.6" r="15" fill="#1f6feb" stroke="#0d1117" stroke-width="2"/>
<text x="129.4" y="225.6" fill="#e6edf3" font-size="11" text-anchor="middle" dy="29">Gina</text>
<circle cx="286.3" cy="231.8" r="15" fill="#1f6feb" stroke="#0d1117" stroke-width="2"/>
<text x="286.3" y="231.8" fill="#e6edf3" font-size="11" text-anchor="middle" dy="29">Hugo</text>
<circle cx="337.9" cy="70.0" r="15" fill="#1f6feb" stroke="#0d1117" stroke-width="2"/>
<text x="337.9" y="70.0" fill="#e6edf3" font-size="11" text-anchor="middle" dy="29">Ivy</text>
<circle cx="346.2" cy="214.7" r="15" fill="#1f6feb" stroke="#0d1117" stroke-width="2"/>
<text x="346.2" y="214.7" fill="#e6edf3" font-size="11" text-anchor="middle" dy="29">Jon</text>
<circle cx="216.7" cy="108.3" r="15" fill="#1f6feb" stroke="#0d1117" stroke-width="2"/>
<text x="216.7" y="108.3" fill="#e6edf3" font-size="11" text-anchor="middle" dy="29">Kim</text>
<circle cx="495.6" cy="262.1" r="15" fill="#1f6feb" stroke="#0d1117" stroke-width="2"/>
<text x="495.6" y="262.1" fill="#e6edf3" font-size="11" text-anchor="middle" dy="29">Leo</text>
</svg>
