<svg xmlns="http://www.w3.org/2000/svg" width="510" height="320" viewBox="0 0 510 320" font-family="-apple-system, Segoe UI, Roboto, sans-serif">
<rect width="510" height="320" rx="10" fill="#0d1117"/>
<line x1="255.0" y1="70.0" x2="130.0" y2="160.0" stroke="#30363d" stroke-width="1.5"/>
<line x1="255.0" y1="70.0" x2="250.0" y2="160.0" stroke="#30363d" stroke-width="1.5"/>
<line x1="255.0" y1="70.0" x2="380.0" y2="160.0" stroke="#30363d" stroke-width="1.5"/>
<line x1="130.0" y1="160.0" x2="70.0" y2="250.0" stroke="#30363d" stroke-width="1.5"/>
<line x1="130.0" y1="160.0" x2="190.0" y2="250.0" stroke="#30363d" stroke-width="1.5"/>
<line x1="250.0" y1="160.0" x2="250.0" y2="250.0" stroke="#30363d" stroke-width="1.5"/>
<line x1="380.0" y1="160.0" x2="320.0" y2="250.0" stroke="#30363d" stroke-width="1.5"/>
<line x1="380.0" y1="160.0" x2="440.0" y2="250.0" stroke="#30363d" stroke-width="1.5"/>
<circle cx="255.0" cy="70.0" r="20" fill="#8957e5" stroke="#0d1117" stroke-width="2"/>
<text x="255.0" y="70.0" fill="#e6edf3" font-size="11" text-anchor="middle" dy="34">CEO</text>
<circle cx="130.0" cy="160.0" r="20" fill="#8957e5" stroke="#0d1117" stroke-width="2"/>
<text x="130.0" y="160.0" fill="#e6edf3" font-size="11" text-anchor="middle" dy="34">CTO</text>
<circle cx="70.0" cy="250.0" r="20" fill="#8957e5" stroke="#0d1117" stroke-width="2"/>
<text x="70.0" y="250.0" fill="#e6edf3" font-size="11" text-anchor="middle" dy="34">Eng Lead</text>
<circle cx="190.0" cy="250.0" r="20" fill="#8957e5" stroke="#0d1117" stroke-width="2"/>
<text x="190.0" y="250.0" fill="#e6edf3" font-size="11" text-anchor="middle" dy="34">QA Lead</text>
<circle cx="250.0" cy="160.0" r="20" fill="#8957e5" stroke="#0d1117" stroke-width="2"/>
<text x="250.0" y="160.0" fill="#e6edf3" font-size="11" text-anchor="middle" dy="34">CFO</text>
<circle cx="250.0" cy="250.0" r="20" fill="#8957e5" stroke="#0d1117" stroke-width="2"/>
<text x="250.0" y="250.0" fill="#e6edf3" font-size="11" text-anchor="middle" dy="34">Controller</text>
<circle cx="380.0" cy="160.0" r="20" fill="#8957e5" stroke="#0d1117" stroke-width="2"/>
<text x="380.0" y="160.0" fill="#e6edf3" font-size="11" text-anchor="middle" dy="34">COO</text>
<circle cx="320.0" cy="250.0" r="20" fill="#8957e5" stroke="#0d1117" stroke-width="2"/>
<text x="320.0" y="250.0" fill="#e6edf3" font-size="11" text-anchor="middle" dy="34">Ops Lead</text>
<circle cx="440.0" cy="250.0" r="20" fill="#8957e5" stroke="#0d1117" stroke-width="2"/>
<text x="440.0" y="250.0" fill="#e6edf3" font-size="11" text-anchor="middle" dy="34">Support</text>
</svg>
